<svg width="1024" height="1024" viewBox="0 0 1024 1024" fill="none" xmlns="http://www.w3.org/2000/svg">
  <defs>
    <linearGradient id="sendableBg" x1="160" y1="96" x2="864" y2="928" gradientUnits="userSpaceOnUse">
      <stop stop-color="#EEF5FF"/>
      <stop offset="1" stop-color="#DCEBFF"/>
    </linearGradient>
    <linearGradient id="sendableLetter" x1="396" y1="250" x2="657" y2="774" gradientUnits="userSpaceOnUse">
      <stop stop-color="#2F6FED"/>
      <stop offset="1" stop-color="#1849C6"/>
    </linearGradient>
  </defs>
  <rect x="96" y="96" width="832" height="832" rx="230" fill="url(#sendableBg)"/>
  <rect x="96" y="96" width="832" height="832" rx="230" stroke="#C7DBFF" stroke-width="18"/>
  <path d="M588.596 357.416C561.722 357.416 543.797 372.44 543.797 394.941C543.797 418.099 557.54 430.53 598.399 440.674C657.108 454.924 686.451 485.985 686.451 543.635C686.451 614.101 630.069 663.173 546.738 663.173C478.891 663.173 424.161 638.632 385.131 592.755L445.153 536.093C473.153 568.949 505.665 584.762 547.394 584.762C580.298 584.762 600.472 569.675 600.472 545.791C600.472 522.131 586.192 510.015 543.14 499.463C487.775 485.984 457.755 452.962 457.755 397.098C457.755 327.287 514.826 279.005 594.501 279.005C653.557 279.005 701.124 298.524 736.871 338.442L676.254 392.605C649.882 368.157 623.855 357.416 588.596 357.416Z" fill="url(#sendableLetter)"/>
  <path d="M588.596 357.416C561.722 357.416 543.797 372.44 543.797 394.941C543.797 418.099 557.54 430.53 598.399 440.674C657.108 454.924 686.451 485.985 686.451 543.635C686.451 614.101 630.069 663.173 546.738 663.173C478.891 663.173 424.161 638.632 385.131 592.755L445.153 536.093C473.153 568.949 505.665 584.762 547.394 584.762C580.298 584.762 600.472 569.675 600.472 545.791C600.472 522.131 586.192 510.015 543.14 499.463C487.775 485.984 457.755 452.962 457.755 397.098C457.755 327.287 514.826 279.005 594.501 279.005C653.557 279.005 701.124 298.524 736.871 338.442L676.254 392.605C649.882 368.157 623.855 357.416 588.596 357.416Z" stroke="rgba(255,255,255,0.4)" stroke-width="6"/>
</svg>
